<svg width="22" height="23" viewBox="0 0 22 23" fill="none" xmlns="http://www.w3.org/2000/svg">
<path d="M21.9936 0H0.00644531C0.00288566 0 0 0.00301683 0 0.00673828V22.9933C0 22.997 0.00288566 23 0.00644531 23H21.9936C21.9971 23 22 22.997 22 22.9933V0.00673828C22 0.00301683 21.9971 0 21.9936 0Z" fill="#EFD81D"/>
<path d="M13.9219 16.6211C14.3516 17.3848 14.9531 17.9238 15.9414 17.9238C16.8008 17.9238 17.3594 17.4746 17.3594 16.8457C17.3594 16.127 16.8008 15.8574 15.8555 15.4082L15.3398 15.1836C13.8359 14.5098 12.8477 13.7012 12.8477 11.9492C12.8477 10.332 14.0078 9.07422 15.8555 9.07422C17.1875 9.07422 18.1328 9.56836 18.7773 10.8262L17.1875 11.9043C16.8438 11.2305 16.457 10.9609 15.8555 10.9609C15.2539 10.9609 14.8672 11.3652 14.8672 11.9043C14.8672 12.5332 15.2539 12.8027 16.1562 13.207L16.6719 13.4316C18.4336 14.2402 19.4219 15.0039 19.4219 16.8457C19.4219 18.7773 17.9609 19.8555 15.9844 19.8555C14.0508 19.8555 12.8047 18.9121 12.2031 17.6543L13.9219 16.6211ZM6.61719 16.8008C6.96094 17.3848 7.21875 17.9238 7.94922 17.9238C8.63672 17.9238 9.06641 17.6543 9.06641 16.5762V9.11914H11.1289V16.4863C11.1289 18.7324 9.88281 19.7207 8.03516 19.7207C6.35938 19.7207 5.41406 18.8223 4.94141 17.7441L6.61719 16.8008Z" fill="black"/>
</svg>
