<svg width="24" height="24" viewBox="0 0 24 24" fill="none" xmlns="http://www.w3.org/2000/svg">
<path d="M11.9957 22.7812C11.709 22.7812 11.418 22.7042 11.1656 22.5587L8.52567 20.997C8.13206 20.7745 8.32458 20.6976 8.45297 20.6547C8.97919 20.4707 9.08616 20.4323 9.64664 20.1113C9.7066 20.0772 9.78361 20.0899 9.84347 20.1285L11.8716 21.3307C11.9443 21.3735 12.0469 21.3735 12.1154 21.3307L20.0182 16.7696C20.091 16.7268 20.1379 16.6413 20.1379 16.5557V7.43358C20.1379 7.34372 20.091 7.26243 20.0139 7.21542L12.1155 2.65856C12.0428 2.61576 11.9444 2.61576 11.8716 2.65856L3.97744 7.21964C3.90038 7.26244 3.85336 7.34798 3.85336 7.43784V16.5557C3.85336 16.6413 3.90038 16.7268 3.97744 16.7654L6.1425 18.0148C7.31916 18.6009 8.03794 17.9121 8.03794 17.2147V8.21226C8.03794 8.08392 8.1406 7.98553 8.26903 7.98553H9.27024C9.39432 7.98553 9.50124 8.08392 9.50124 8.21226V17.219C9.50124 18.7849 8.64549 19.6835 7.16086 19.6835C6.70299 19.6835 6.3436 19.6835 5.34239 19.1872L3.2715 17.9934C2.75803 17.6981 2.44144 17.1462 2.44144 16.5515V7.43358C2.44144 6.84314 2.75803 6.28692 3.2715 5.9917L11.1656 1.43058C11.6662 1.1482 12.3294 1.1482 12.8258 1.43058L20.7286 5.99592C21.242 6.29114 21.5586 6.84309 21.5586 7.43784V16.5557C21.5586 17.1462 21.242 17.6981 20.7286 17.9977L12.8258 22.5587C12.5733 22.7042 12.2865 22.7812 11.9957 22.7812ZM18.3753 13.7917C18.3753 12.0845 17.22 11.631 14.794 11.3101C12.338 10.9849 12.0899 10.818 12.0899 10.2447C12.0899 9.76982 12.2995 9.13654 14.118 9.13654C15.7396 9.13654 16.3387 9.4874 16.5868 10.5828C16.6082 10.6854 16.7024 10.7625 16.8092 10.7625H17.8363C17.9003 10.7625 17.9603 10.7368 18.0031 10.6897C18.0459 10.6427 18.0673 10.5785 18.0629 10.5142C17.9047 8.62744 16.6509 7.75026 14.118 7.75026C11.8631 7.75026 10.5196 8.70014 10.5196 10.2961C10.5196 12.0247 11.8588 12.504 14.0195 12.7177C16.6082 12.9703 16.8092 13.3511 16.8092 13.8602C16.8092 14.7417 16.0991 15.1181 14.4346 15.1181C12.3424 15.1181 11.8845 14.5919 11.7305 13.5522C11.7134 13.441 11.6192 13.3597 11.5037 13.3597H10.4811C10.3527 13.3597 10.2544 13.4624 10.2544 13.5864C10.2544 14.9172 10.9775 16.5045 14.439 16.5045C16.9376 16.5002 18.3753 15.5117 18.3753 13.7917Z" fill="#3f873f"/>
</svg>
