<svg width="26" height="26" viewBox="0 0 26 26" fill="none" xmlns="http://www.w3.org/2000/svg">
<circle cx="13" cy="13" r="13" fill="#212529"/>
<path d="M12.98 14.992C14.089 14.992 14.988 14.093 14.988 12.984C14.988 11.875 14.089 10.976 12.98 10.976C11.871 10.976 10.972 11.875 10.972 12.984C10.972 14.093 11.871 14.992 12.98 14.992Z" fill="#62D5F3"/>
<path d="M12.98 17.584C10.16 17.584 7.69599 17.252 5.85199 16.62C4.65599 16.212 3.63999 15.668 2.91599 15.048C2.14799 14.392 1.73999 13.676 1.73999 12.984C1.73999 11.656 3.19599 10.356 5.63999 9.508C7.63999 8.812 10.248 8.424 12.976 8.424C15.656 8.424 18.228 8.8 20.216 9.488C21.38 9.888 22.36 10.408 23.056 10.984C23.812 11.616 24.212 12.308 24.212 12.984C24.212 14.364 22.584 15.76 19.96 16.628C18.104 17.244 15.624 17.584 12.98 17.584ZM12.98 9.384C10.392 9.384 7.83199 9.76 5.95999 10.412C3.71199 11.196 2.70399 12.268 2.70399 12.984C2.70399 13.728 3.78799 14.9 6.16399 15.712C7.90799 16.308 10.268 16.624 12.98 16.624C15.524 16.624 17.896 16.304 19.66 15.716C22.128 14.896 23.256 13.724 23.256 12.984C23.256 12.604 22.968 12.156 22.444 11.72C21.84 11.216 20.96 10.756 19.908 10.392C18.016 9.744 15.556 9.384 12.98 9.384Z" fill="#62D5F3"/>
<path d="M8.42399 22.992C8.01599 22.992 7.65599 22.904 7.35199 22.728C6.20399 22.064 5.80399 20.152 6.28799 17.612C6.68399 15.528 7.65199 13.08 9.01599 10.716C10.356 8.396 11.964 6.356 13.552 4.976C14.48 4.168 15.42 3.576 16.268 3.264C17.192 2.924 17.992 2.924 18.576 3.26C19.772 3.948 20.168 6.06 19.608 8.764C19.212 10.684 18.268 13 16.948 15.292C15.54 17.732 14.02 19.7 12.552 20.984C11.6 21.816 10.62 22.424 9.72399 22.74C9.25599 22.908 8.81599 22.992 8.42399 22.992ZM9.42799 10.956L9.84399 11.196C8.55199 13.436 7.59599 15.84 7.22799 17.792C6.78399 20.132 7.21199 21.54 7.82799 21.896C7.97999 21.984 8.17999 22.032 8.42399 22.032C9.21999 22.032 10.472 21.528 11.92 20.264C13.308 19.052 14.76 17.164 16.116 14.816C17.388 12.612 18.292 10.396 18.668 8.576C19.192 6.028 18.74 4.468 18.096 4.096C17.768 3.908 17.236 3.932 16.596 4.168C15.856 4.44 15.02 4.972 14.18 5.704C12.672 7.016 11.132 8.968 9.84399 11.2L9.42799 10.956Z" fill="#62D5F3"/>
<path d="M17.536 23.004C16.448 23.004 15.068 22.348 13.628 21.108C12.02 19.724 10.384 17.664 9.01601 15.3C7.67201 12.98 6.71201 10.568 6.30801 8.5C6.07201 7.292 6.02801 6.184 6.18001 5.292C6.34801 4.32 6.74401 3.628 7.33201 3.288C8.52401 2.596 10.552 3.308 12.616 5.144C14.08 6.444 15.616 8.42 16.94 10.708C18.352 13.148 19.3 15.448 19.676 17.36C19.92 18.6 19.96 19.752 19.788 20.688C19.604 21.684 19.188 22.392 18.588 22.74C18.288 22.916 17.932 23.004 17.536 23.004ZM9.84801 14.82C11.144 17.06 12.752 19.088 14.256 20.38C16.06 21.932 17.492 22.268 18.112 21.908C18.756 21.536 19.228 20.012 18.74 17.548C18.38 15.74 17.472 13.54 16.112 11.192C14.836 8.988 13.368 7.096 11.98 5.864C10.036 4.136 8.46001 3.748 7.81601 4.12C7.48801 4.308 7.24401 4.784 7.12801 5.456C6.99601 6.232 7.03601 7.224 7.25201 8.316C7.63601 10.28 8.55601 12.588 9.84801 14.82Z" fill="#62D5F3"/>
</svg>
